<svg width="113" height="107" viewBox="0 0 113 107" fill="none" xmlns="http://www.w3.org/2000/svg">
<path d="M19.4998 83.5L28.9998 81.5L36.9998 87.5L43.4998 90.5L52.9998 95.5L61.4998 94L66.4998 90.5H74.9998L80.9998 84.5L86.9998 85.5L93.9998 86.5L99.9998 82.5L101.5 77.5L103.5 74.5L108 69.5V61L105.5 54.5L101.5 51V46.5L98.4998 41L95.9998 39L90.9998 36.5L89.4998 34.5L88.4998 28L84.9998 24L79.4998 21.5L74.9998 18H69.4998L62.9998 16H56.4998L48.9998 15H43.4998L36.9998 20.5L30.9998 21.5L27.9998 28L22.9998 33.5L14.4998 36.5L9.49976 46.5V53.5L3.99976 62L5.49976 71.5L13.4998 76.5L19.4998 83.5Z" fill="white" stroke="black"/>
<path d="M21.4324 30.6121C21.9323 30.5515 22.8217 30.4613 23.6492 30.6384C24.0769 30.7301 24.601 30.9153 25.0515 31.3132C25.5366 31.7418 25.8335 32.3275 25.9041 33.0056L25.9529 33.4714L25.7273 33.8826C24.9398 35.3158 23.4888 35.772 22.4763 35.9949C21.9671 36.107 21.3874 36.1927 20.9841 36.2644C20.5271 36.3457 20.207 36.4208 19.9734 36.5134C16.2312 37.9976 14.1381 40.4503 13.198 43.3103C12.2398 46.2253 12.4363 49.7091 13.5925 53.2273L13.9656 54.3621L12.9431 54.9792C10.3679 56.5343 8.38735 58.5584 7.43628 61.1931L7.43335 61.2C6.55693 63.5936 6.69709 66.235 7.823 68.5261L7.8269 68.5339C8.63101 70.1928 9.56776 71.2066 10.6794 71.9636C11.8379 72.7525 13.2378 73.3014 15.0896 73.9539L15.9148 74.2449L16.0681 75.1052C16.2791 76.2878 16.4182 76.9774 16.8357 77.7761L17.033 78.1267L17.0359 78.1316C17.7592 79.3526 18.9343 80.2529 20.3152 80.6433L20.5945 80.7146L20.6023 80.7166C22.4454 81.1493 24.018 80.7456 25.7722 79.8103C25.4982 78.4498 25.32 77.0725 25.2419 75.6873C21.9081 74.1701 20.0725 71.2572 19.5378 68.0779C19.0106 64.9417 19.7303 61.5101 21.4773 58.7253C20.3287 55.9983 19.9733 52.352 21.5017 49.5359C21.7302 49.1147 22.1899 48.1236 22.7341 47.3757C23.2909 46.6106 24.2681 45.6109 25.7761 45.6238L26.0876 45.6257L26.3728 45.7527C26.5166 45.8167 26.5897 45.8448 26.6941 45.8884C26.761 45.9164 26.9926 46.0083 27.2156 46.1863C27.4506 46.374 27.5899 46.5864 27.6404 46.6619L27.8328 46.9519L28.0242 47.2302L28.0769 47.5642C28.2794 48.8315 27.808 49.8095 27.3552 50.5271C27.1463 50.8582 26.8812 51.2237 26.698 51.489C26.4937 51.785 26.322 52.0522 26.1824 52.3298C25.9223 52.8472 25.7499 53.4438 25.8416 54.2947C25.9378 55.1873 26.3348 56.4458 27.3904 58.2351L27.8923 59.0857L27.3083 59.8835C25.3207 62.5983 24.5107 65.0142 24.7976 66.9197C25.0653 68.697 26.3697 70.4905 29.7751 71.8494L30.7468 72.2371L30.7185 73.283L30.6853 74.9783C30.6329 79.4682 32.5075 83.0789 36.6941 84.8669C38.4866 85.6324 40.1482 85.6308 42.4666 85.6453L43.1638 85.6501L43.6091 86.1843C45.0614 87.9258 46.2805 89.2038 47.6658 90.1687C49.027 91.1167 50.6148 91.8067 52.8455 92.2595C56.0068 92.8472 59.5543 92.1713 62.1394 90.3796L62.4197 90.1765C62.6883 89.9734 62.9263 89.7693 63.1755 89.5554C63.4855 89.2894 63.8727 88.9531 64.3142 88.6853C65.3606 88.0507 66.5097 87.9071 68.0945 88.2546C71.3559 88.9699 74.1135 88.1991 76.0251 86.5671C77.9444 84.9286 79.1444 82.3067 79.0496 79.0691L79.0466 78.9636L79.0583 78.8582C79.1458 78.0759 79.5493 77.4919 79.9685 77.0867C80.3732 76.6955 80.852 76.4113 81.2507 76.2029C81.6427 75.998 82.087 75.803 82.3787 75.6667C82.7296 75.5028 82.8897 75.4106 82.9548 75.3601C85.3017 73.5371 86.3949 71.3655 86.5828 69.1257C86.7737 66.8488 86.0396 64.344 84.4333 61.9109L84.0095 61.2683L84.2839 60.5496C85.0933 58.4299 85.5257 57.5574 85.8083 55.615C85.9695 54.5076 85.6043 53.4928 85.073 52.488C84.9414 52.2392 84.805 52.001 84.6667 51.7605C84.534 51.5296 84.3892 51.2791 84.2654 51.0447C84.1432 50.8134 84.0103 50.5395 83.9158 50.2527C83.8248 49.9765 83.7271 49.5654 83.8005 49.1013L83.8572 48.7429L84.072 48.45C84.2357 48.2264 84.4558 47.9173 84.7712 47.6648C85.0863 47.4127 85.4358 47.2649 85.6921 47.1531L85.9294 47.0496L86.1882 47.031C87.8054 46.9194 88.8428 47.8542 89.4373 48.7742C89.9861 49.6236 90.3021 50.673 90.4968 51.2625C91.4852 54.2544 91.3705 57.6949 90.0798 60.6277C92.0622 64.0115 92.5966 68.0398 91.5564 71.8171L91.5554 71.8201C90.8918 74.2111 89.9298 76.0308 88.5564 77.5515C87.3729 78.8619 85.9347 79.8907 84.2693 80.8689C84.262 81.2588 84.265 81.6565 84.2703 82.072C84.9092 82.6159 85.4867 82.899 86.5046 83.3718C87.9714 84.0013 89.1753 84.2307 90.7595 84.1638L90.7644 84.1628C92.8954 84.0799 94.9004 83.1599 96.3337 81.614C98.0033 79.7749 98.5149 77.5665 98.3816 74.9373L98.3318 73.9519L99.2175 73.5154C106.468 69.9467 108.449 61.4866 103.075 55.3982C103.089 55.414 103.054 55.3758 102.923 55.2683C102.806 55.1729 102.653 55.0556 102.468 54.9187C102.093 54.6421 101.649 54.3294 101.185 53.9988C100.738 53.6795 100.269 53.3409 99.9031 53.0466C99.7228 52.9017 99.5334 52.7414 99.3748 52.5808C99.2962 52.5013 99.1989 52.3948 99.1082 52.2693C99.0467 52.1843 98.9083 51.9843 98.8289 51.7009L98.7986 51.574C98.5404 50.2484 98.6137 48.7906 98.5896 47.7605C98.5632 46.6308 98.4413 45.7221 97.988 44.8855L97.9646 44.8416L97.9441 44.7966C96.9133 42.5524 95.7943 41.5666 94.5154 40.9011C93.8281 40.5435 93.0625 40.2633 92.1375 39.949C91.2361 39.6427 90.1787 39.3034 89.0496 38.8494L88.6531 38.6892L88.4001 38.3455C88.072 37.8986 87.805 37.3233 87.8777 36.6228C87.9377 36.0452 88.2287 35.5735 88.3513 35.365L88.5222 35.074L88.8025 34.8835C89.7859 34.2177 90.9041 34.1572 91.7859 34.28C99.816 35.3987 104.395 42.0712 104.187 49.3933C108.689 52.1127 111.091 56.8912 111.452 61.7507C111.822 66.742 110.057 72.0034 106.007 75.4441L105.607 75.7712C104.996 76.2546 104.422 76.6685 103.81 77.0828C103.409 79.4553 102.963 81.8702 101.22 84.2322C98.097 88.4661 92.8117 90.1077 87.8669 89.3269C85.7704 88.9959 84.0489 88.3235 82.3923 87.321C80.7441 89.9561 78.6138 91.8003 76.0662 92.8601C73.3032 94.0094 70.1827 94.1843 66.8826 93.6238C66.2512 94.1574 65.5892 94.6122 64.9158 95.0251L64.9128 95.0271C60.6496 97.6281 55.5136 98.4404 50.6433 97.2878C48.8029 96.8592 46.7201 95.9564 44.865 94.7957C43.2628 93.7932 41.7246 92.5333 40.6541 91.114C38.0138 90.8981 35.5661 90.3843 33.3767 89.2947C31.3379 88.2799 29.5876 86.797 28.1218 84.7146C24.9465 86.2962 21.5545 86.7347 18.5339 85.822C15.2524 84.8305 12.6233 82.3077 11.2947 78.4167C8.04861 77.1 5.44411 75.0628 3.73315 72.3953C1.89638 69.5314 1.1589 66.0483 1.64722 62.1853V62.1843C2.2064 57.7638 4.378 54.8004 7.56714 52.2625C6.75564 47.3307 7.24601 42.5158 9.39429 38.614C11.6449 34.5264 15.6222 31.6155 21.3572 30.6228L21.3943 30.616L21.4324 30.6121Z" fill="black" stroke="white" stroke-width="3"/>
<path d="M44.1337 12.1407C44.7601 12.0455 45.6448 12.049 46.5409 12.1281C47.4737 12.2103 48.5397 12.3837 49.5175 12.6779C50.4454 12.9571 51.5121 13.4087 52.2303 14.1798C52.6143 14.5921 52.9335 15.1345 53.0223 15.8038C53.1112 16.4743 52.9483 17.117 52.6405 17.6935L52.451 18.0499L52.1083 18.2618C51.4249 18.6855 50.6856 18.6476 50.2069 18.5753C49.7071 18.4998 49.1733 18.3328 48.7118 18.1827C47.7094 17.8567 46.7406 17.5129 45.6835 17.4064C44.6781 17.3051 43.6503 17.4306 42.5975 18.0568C41.5214 18.6969 40.285 19.9403 39.036 22.3204L38.6288 23.0978L37.7518 23.1232C35.8183 23.1799 34.6244 23.2736 33.6512 23.6525C32.7866 23.9892 31.9733 24.6064 31.0204 26.0157C30.7209 26.6706 30.6344 27.4106 30.4686 28.4767C30.3165 29.4549 30.0824 30.7951 29.16 31.8829C28.7674 32.3462 28.2587 32.5294 27.8143 32.5597C27.4671 32.5833 27.1388 32.5085 27.0663 32.4943L26.7098 32.4249L26.4247 32.1993C25.4653 31.4424 25.0545 30.3752 24.9598 29.3868L24.9589 29.3878C24.3914 24.696 27.7343 19.7434 32.2987 18.4523C33.1395 18.2144 33.7941 18.083 34.2821 17.9796C34.7979 17.8703 35.0358 17.8084 35.2216 17.7267C35.4761 17.6147 35.8175 17.3975 36.7655 15.921C37.566 14.6743 38.9172 13.821 40.1923 13.255C41.4907 12.6787 42.9096 12.313 44.1044 12.1447V12.1437C44.1127 12.1423 44.1213 12.142 44.1298 12.1407C44.1311 12.1406 44.1323 12.14 44.1337 12.1398V12.1407Z" fill="black" stroke="white" stroke-width="3"/>
<path d="M70.8386 14.3499C73.5158 14.197 75.9037 14.6468 77.9529 15.8196C79.8019 16.8778 81.2716 18.4671 82.4187 20.5159C84.9216 20.9967 87.2979 22.1966 89.0056 24.0198C90.9209 26.0647 91.9632 28.8683 91.3728 32.1204C91.2531 32.779 90.8665 33.2101 90.5437 33.4641C90.2537 33.6923 89.9298 33.8414 89.8113 33.8987L89.4509 34.0725L89.0525 34.0442C88.4996 34.0049 87.954 33.8682 87.4744 33.5618C86.977 33.244 86.6587 32.8126 86.4636 32.3694C86.2807 31.9536 86.2087 31.5341 86.1716 31.2073C86.1408 30.9359 86.1247 30.6282 86.1111 30.3987C85.7109 28.4362 84.9736 27.4826 84.0681 26.8967C83.0401 26.2315 81.6019 25.9024 79.5007 25.6077L78.6443 25.4875L78.3191 24.6868C77.5667 22.8346 76.5421 21.4026 75.322 20.5813C74.163 19.8012 72.705 19.4848 70.7917 20.0657C70.1878 20.2491 68.9531 20.5637 67.8865 20.4231C67.3494 20.3522 66.5091 20.1185 65.9958 19.3176C65.4709 18.4985 65.5922 17.5684 65.8533 16.8303L65.9617 16.5256L66.1843 16.2932C66.879 15.5678 67.7302 15.182 68.4773 14.9358C69.1695 14.7076 70.0249 14.5304 70.5476 14.3948L70.6912 14.3577L70.8386 14.3499Z" fill="black" stroke="white" stroke-width="3"/>
<path d="M49.924 8.43665C51.0012 8.41733 52.2453 8.75494 53.3878 9.23254C54.5562 9.72099 55.7593 10.4144 56.7687 11.2365C57.7521 12.0375 58.6887 13.0723 59.1115 14.2814C59.3305 14.9079 59.418 15.6035 59.2726 16.3234C59.1263 17.0472 58.7634 17.7 58.2306 18.2638L57.8029 18.7169L57.1798 18.7325C56.5555 18.7489 56.2447 18.6425 55.9015 18.5548L55.6027 18.4786L55.3585 18.2902C54.524 17.6477 54.1396 16.8282 53.8888 16.297C53.6151 15.7176 53.4752 15.4278 53.2081 15.17C53.0492 15.0167 52.8022 14.8624 52.4161 14.6954C52.0134 14.5213 51.6032 14.3901 51.0675 14.2003C50.1993 13.8927 48.6692 13.3536 47.9982 11.8907L47.8556 11.5792L47.8615 11.2374C47.8825 10.0994 48.4736 9.43147 48.7208 9.07727L49.1583 8.45032L49.924 8.43665Z" fill="black" stroke="white" stroke-width="3"/>
<path d="M67.0575 10.2031C67.3301 10.1883 68.4285 10.0534 69.287 10.1279C69.7383 10.1671 70.3451 10.2714 70.8876 10.6045C71.4737 10.9644 71.918 11.555 72.0262 12.3379L72.0428 12.4971L72.0438 12.5078L72.0624 12.8135C72.0765 13.1848 72.0546 13.7289 71.7997 14.2246C71.3632 15.0731 70.5445 15.3538 69.9178 15.4619C69.1324 15.5974 68.4879 15.6732 68.0135 15.7383C67.5143 15.8068 67.2222 15.8611 66.9833 15.9404C66.6117 16.0639 66.1923 16.2989 65.2577 17.3838C65.147 17.5408 65.0197 17.7268 64.9091 17.8701C64.7688 18.0518 64.5733 18.2819 64.2968 18.4814C63.7083 18.9061 63.0503 18.9757 62.5155 19.0127L62.0975 19.042L61.7245 18.8496C60.7709 18.3581 60.2392 17.519 60.1718 16.5625C60.1128 15.7263 60.4166 14.9577 60.7362 14.4004C62.123 11.9829 64.6047 10.9135 66.6962 10.2676L66.8729 10.2129L67.0575 10.2031Z" fill="black" stroke="white" stroke-width="3"/>
<path d="M21.991 31.8308C22.4256 31.7943 22.9323 31.7842 23.3826 31.8806C23.6848 31.9453 23.9789 32.0616 24.2097 32.2654C24.4458 32.4739 24.6013 32.7614 24.6404 33.1365L24.6482 33.2078L24.613 33.2712C24.109 34.1882 23.156 34.5439 22.2029 34.7537C21.7259 34.8586 21.2215 34.9318 20.7625 35.0134C20.2951 35.0965 19.8668 35.1895 19.5056 35.3328C15.4289 36.9495 13.0532 39.6795 11.99 42.9138C10.9242 46.1564 11.171 49.9281 12.3855 53.6238L12.4421 53.7966L12.2859 53.8914C9.54521 55.5463 7.3198 57.7729 6.24097 60.7615V60.7625C5.30711 63.3126 5.38895 66.1104 6.45679 68.5945L6.68335 69.0867V69.0886C7.57951 70.9373 8.65965 72.1254 9.96362 73.0134C11.1111 73.7948 12.4382 74.3489 13.989 74.9109L14.6677 75.1521L14.7937 75.197L14.8171 75.3289C15.0308 76.5263 15.1933 77.3698 15.7019 78.3494L15.9421 78.7791L15.9431 78.78C16.8347 80.2847 18.2788 81.3879 19.9695 81.866L20.3113 81.9529L20.3123 81.9539C22.8966 82.5605 25.0099 81.7705 27.2117 80.4548C26.7757 78.6053 26.5291 76.7175 26.4763 74.8191C23.1214 73.6016 21.3016 70.9052 20.7908 67.8669C20.2811 64.8352 21.0706 61.4571 22.9285 58.8376C21.6593 56.2981 21.2197 52.7187 22.6179 50.1423C22.9131 49.5984 23.2824 48.7812 23.7615 48.1228C24.2424 47.4621 24.8846 46.8869 25.7644 46.8943H25.8123L25.8562 46.9138C26.0173 46.9855 26.1215 47.0268 26.2039 47.0613C26.2805 47.0933 26.3558 47.1261 26.4226 47.1794C26.4912 47.2343 26.5379 47.3004 26.5837 47.3689C26.6342 47.4442 26.6872 47.5283 26.7849 47.6707L26.8142 47.7136L26.822 47.7644C26.9529 48.5836 26.6669 49.2363 26.28 49.8494C26.0893 50.1516 25.8645 50.4596 25.6521 50.7673C25.4365 51.0797 25.2255 51.4028 25.0466 51.7585C24.6918 52.4644 24.4565 53.3057 24.5779 54.4314C24.7 55.5634 25.1845 56.9972 26.2957 58.8806L26.3728 59.0105L26.283 59.1326C24.2144 61.9578 23.1806 64.7171 23.5408 67.1091C23.8981 69.4815 25.6406 71.5674 29.3035 73.0291L29.4529 73.0886L29.448 73.2488C29.4325 73.8204 29.4216 74.3921 29.4148 74.9636C29.3576 79.8615 31.4449 84.0071 36.1951 86.0359C38.2618 86.9185 40.1861 86.9016 42.4587 86.9158L42.5652 86.9167L42.6335 86.9988C44.1052 88.7635 45.4113 90.1465 46.9392 91.2107C48.4628 92.2719 50.2175 93.0234 52.5935 93.5056H52.5945C56.0666 94.1562 59.9724 93.4279 62.863 91.4246C63.3151 91.1112 63.6729 90.8033 64.0027 90.5203C64.3292 90.2401 64.6371 89.9762 64.9734 89.7722C65.6709 89.3492 66.4662 89.1985 67.822 89.4958C71.4349 90.2882 74.6074 89.4477 76.8494 87.5339C79.0924 85.6191 80.4249 82.6118 80.3201 79.032L80.3191 79.0154L80.321 78.9998C80.3662 78.5959 80.5741 78.2677 80.8513 77.9998C81.1263 77.734 81.48 77.5169 81.8396 77.3289C82.1981 77.1415 82.5838 76.9736 82.9167 76.8181C83.2588 76.6584 83.5428 76.5125 83.7351 76.363C86.3403 74.3392 87.6297 71.8518 87.8494 69.2312C88.0694 66.6049 87.2169 63.8206 85.4939 61.2107L85.4294 61.1121L85.4714 61.0027C86.2585 58.9413 86.7584 57.9129 87.0662 55.7976C87.2857 54.2881 86.7694 52.9774 86.196 51.8933C86.0529 51.6227 85.9066 51.3683 85.7683 51.1277C85.6308 50.8885 85.4992 50.6606 85.3884 50.4509C85.278 50.2418 85.1832 50.0416 85.1218 49.8552C85.061 49.6704 85.0268 49.4806 85.0554 49.2996L85.0642 49.2449L85.0974 49.2C85.28 48.9505 85.4042 48.7859 85.5652 48.657C85.7261 48.5282 85.9146 48.4426 86.2 48.3181L86.2361 48.3015L86.2761 48.2996C87.2682 48.2311 87.9227 48.7718 88.3699 49.4636C88.8101 50.1449 89.0747 51.01 89.2898 51.6609C90.2514 54.5716 90.0534 57.9505 88.6414 60.6951C88.7435 60.8626 88.8454 61.0302 88.9441 61.2L89.113 61.4929C90.8169 64.5346 91.2568 68.1164 90.3308 71.4792V71.4802C89.7105 73.7152 88.8332 75.35 87.614 76.7C86.4213 78.0206 84.9106 79.056 83.0271 80.1169C82.9778 80.9494 82.9952 81.7883 83.0056 82.6375C83.9837 83.5878 84.7361 83.9521 85.989 84.5339L86.2937 84.6619C87.8074 85.2736 89.1395 85.504 90.8132 85.4333H90.8142C93.1246 85.3434 95.3107 84.4024 96.946 82.8064L97.2654 82.4783C99.2414 80.3078 99.7955 77.72 99.6511 74.8728L99.6433 74.7224L99.7791 74.656C107.724 70.7453 109.997 61.3204 104.027 54.5574C103.905 54.4188 103.616 54.1871 103.223 53.8972C102.838 53.6122 102.376 53.2871 101.924 52.9646C101.474 52.6438 101.033 52.3248 100.699 52.0564C100.532 51.9225 100.387 51.7968 100.279 51.6873C100.225 51.6326 100.176 51.5783 100.137 51.5251C100.102 51.4763 100.061 51.4087 100.046 51.3308C99.8149 50.1462 99.8866 48.9056 99.8591 47.7312C99.8313 46.5415 99.7046 45.3863 99.1052 44.28L99.1013 44.2732L99.0984 44.2664C97.958 41.7835 96.6475 40.5788 95.1013 39.7742C94.321 39.3682 93.476 39.0616 92.5466 38.7458C91.6208 38.4313 90.6114 38.1069 89.5242 37.6697L89.4626 37.6453L89.4246 37.5935C89.2081 37.2988 89.1123 37.0336 89.1414 36.7537C89.1685 36.4926 89.3036 36.2518 89.446 36.0095L89.4724 35.9646L89.5154 35.9363C90.1468 35.5087 90.909 35.4412 91.6101 35.5388C99.1766 36.5927 103.418 43.0443 102.877 50.1111C107.388 52.5024 109.831 57.0889 110.184 61.8445C110.541 66.6454 108.771 71.6477 104.819 74.7742C104.091 75.3499 103.417 75.8253 102.649 76.3308C102.208 78.923 101.866 81.217 100.198 83.4783C97.4038 87.2658 92.6263 88.7922 88.0652 88.072C85.7001 87.6987 83.8608 86.859 81.9617 85.5203C80.3551 88.5836 78.1886 90.6002 75.5779 91.6863C72.935 92.7857 69.8622 92.9221 66.4998 92.2615C65.9881 92.7428 65.4432 93.1623 64.8689 93.5466L64.2517 93.9421C60.2736 96.3693 55.4777 97.1281 50.9304 96.0505V96.0496C49.2493 95.6579 47.2967 94.8177 45.5398 93.7185C43.8246 92.6454 42.2764 91.3125 41.3494 89.8914C38.5632 89.7124 36.0914 89.2267 33.9421 88.157C31.8162 87.0988 30.0198 85.4747 28.5447 83.0398C25.3126 84.9448 21.8552 85.4988 18.9011 84.6062C15.9076 83.7016 13.4676 81.3229 12.3201 77.45C9.01653 76.2254 6.44299 74.2657 4.80347 71.7097C3.14513 69.1242 2.45163 65.9466 2.90698 62.3445C3.4455 58.0863 5.60352 55.3096 8.95483 52.7966C8.93828 52.7133 8.92126 52.6301 8.90601 52.5466C8.00984 47.6347 8.46486 42.9375 10.5076 39.2273C12.5547 35.5092 16.1826 32.8079 21.574 31.8748L21.5857 31.8728L21.991 31.8308Z" fill="black" stroke="black" stroke-width="0.458571"/>
<path d="M55.1197 62.0356C56.1584 61.9685 57.9036 61.924 59.2925 62.3843C59.9921 62.6161 60.6551 62.9936 61.0728 63.6128C61.5003 64.2466 61.6227 65.0609 61.3804 66.0552C61.1832 66.8642 60.6166 67.5362 59.9898 68.0659C59.4422 68.5286 58.8115 68.9096 58.2447 69.2075C58.2551 70.0149 58.2774 70.8352 58.2964 71.6509C59.7193 73.2484 60.9517 74.0396 62.0084 74.3647C63.0803 74.6946 64.0181 74.5598 64.8648 74.228C65.7289 73.8893 66.4792 73.3558 67.191 72.8794C67.5371 72.6477 67.8849 72.4226 68.2173 72.2651C68.506 72.1285 68.8234 72.0224 69.1509 72.0259L69.2916 72.0347L69.4371 72.0503L69.5455 72.147C70.3714 72.8798 70.5803 74.1146 69.8043 75.0337C68.3803 76.7193 66.2893 77.5543 64.1812 77.7895C63.9123 79.6118 63.541 81.4939 62.6793 83.0151C61.7414 84.6704 60.2336 85.8827 57.7525 86.1899C57.0469 86.3446 56.1896 86.3236 55.3785 86.1733C54.5529 86.0204 53.7232 85.7262 53.1109 85.3013C50.3958 83.4172 49.8285 80.5467 49.316 77.7817C48.2287 77.7355 46.6742 77.3997 45.3658 76.7495C43.9109 76.0264 42.5524 74.7967 42.814 72.9741C42.9138 72.2801 43.5115 72.0521 43.7945 71.9194L43.8873 71.8755L43.9908 71.8764C44.4032 71.8781 44.765 72.0307 45.0767 72.229C45.3849 72.425 45.673 72.6842 45.9371 72.9311C46.4986 73.4563 46.96 73.9198 47.4966 74.1138C49.0664 74.6807 50.4091 74.547 51.6168 74.0122C52.7965 73.4895 53.865 72.5744 54.8863 71.5005L54.9185 69.3266C54.8904 69.3101 54.8616 69.2945 54.8336 69.2778C53.9416 68.7479 53.1589 68.1312 52.5699 67.478C51.9857 66.8301 51.5644 66.1152 51.4527 65.3891C51.3369 64.6352 51.5634 63.9114 52.1871 63.3198C52.7901 62.7481 53.7418 62.3183 55.0552 62.0444L55.0865 62.0376L55.1197 62.0356ZM59.2584 85.3745C59.2765 85.368 59.2941 85.3606 59.3121 85.354C59.2941 85.3606 59.2765 85.368 59.2584 85.3745ZM59.5816 85.2475C59.5921 85.2431 59.6034 85.2403 59.6138 85.2358C59.6539 85.2186 59.6927 85.1991 59.732 85.1811C59.6825 85.2038 59.6324 85.226 59.5816 85.2475ZM60.3306 84.8628C60.1746 84.959 60.0109 85.0484 59.8394 85.1313C60.0109 85.0484 60.1746 84.959 60.3306 84.8628ZM60.4488 84.7856C60.4769 84.7672 60.5061 84.7507 60.5338 84.7319C60.5405 84.7273 60.5466 84.7219 60.5533 84.7173C60.5191 84.7408 60.4838 84.7628 60.4488 84.7856ZM60.7828 84.5503C60.7923 84.5429 60.8016 84.5352 60.8111 84.5278C60.8016 84.5352 60.7923 84.5429 60.7828 84.5503ZM57.7252 75.2837C57.7472 77.0079 58.3806 80.4361 56.3472 80.8745C54.3179 79.8659 55.9545 76.1672 55.0816 75.4116C54.1536 75.9501 53.0175 76.6605 52.0406 77.06C52.7936 80.8294 52.8179 82.4258 56.8287 83.686C57.632 83.4162 58.6328 83.1444 59.2632 82.6069L59.3453 82.5376C60.0134 81.9641 60.375 81.1254 60.7437 80.3306L61.5533 77.1479C60.1847 76.7185 58.9329 76.0459 57.7252 75.2837ZM63.2896 80.0815C63.2955 80.0572 63.3004 80.0327 63.3062 80.0083C63.3004 80.0327 63.2955 80.0572 63.2896 80.0815ZM63.4 79.5913C63.4044 79.5707 63.4103 79.5504 63.4146 79.5298C63.4185 79.5113 63.4215 79.4926 63.4254 79.4741C63.4172 79.5133 63.4083 79.5522 63.4 79.5913ZM50.1255 79.4848C50.1308 79.5077 50.1368 79.5304 50.1422 79.5532C50.1222 79.4679 50.1027 79.3822 50.0836 79.2964C50.0975 79.3593 50.1111 79.4222 50.1255 79.4848ZM49.9009 78.4155C49.9496 78.6657 50.0018 78.914 50.0552 79.1606C50.0017 78.914 49.9496 78.6657 49.9009 78.4155ZM63.5259 78.9634C63.5681 78.7349 63.605 78.5046 63.6422 78.2739C63.6051 78.5046 63.5679 78.7349 63.5259 78.9634ZM63.7798 77.3686C63.7649 77.4742 63.7475 77.5795 63.732 77.685C63.7475 77.5794 63.7659 77.4742 63.7808 77.3686C63.9109 77.3583 64.0408 77.3455 64.1705 77.3306C64.0406 77.3455 63.9101 77.3583 63.7798 77.3686ZM69.4537 74.7388C69.282 74.9419 69.0987 75.1312 68.9068 75.3091C69.0008 75.222 69.0939 75.1327 69.1832 75.0395C69.2762 74.9425 69.3671 74.8415 69.4547 74.7378L69.4537 74.7388ZM47.9634 74.7397C48.0165 74.7536 48.07 74.7645 48.1226 74.7768C48.0667 74.7637 48.0101 74.7516 47.9537 74.7368L47.9634 74.7397ZM57.7808 68.9341C57.7889 69.8909 57.821 70.8728 57.8423 71.8315C57.9363 71.9389 58.0298 72.043 58.1226 72.144L57.8433 71.8315C57.822 70.8727 57.7889 69.89 57.7808 68.9331V68.9341ZM60.9927 65.6606C60.9951 65.6468 60.9993 65.6333 61.0015 65.6196C61.0066 65.5879 61.0081 65.556 61.0123 65.5249C61.0063 65.5695 61.0006 65.6148 60.9927 65.6606ZM61.0279 65.3891C61.0317 65.3475 61.0356 65.3066 61.0377 65.2661C61.0354 65.3066 61.0318 65.3475 61.0279 65.3891Z" fill="black"/>
<path d="M44.3036 13.3995C44.7819 13.3234 45.5624 13.3182 46.4296 13.3947C47.3001 13.4715 48.2769 13.6316 49.1512 13.8947C50.018 14.1554 50.8175 14.5264 51.3007 15.045C51.546 15.3085 51.7156 15.617 51.7626 15.9708C51.8095 16.3248 51.7309 16.7015 51.5204 17.0958L51.4911 17.1495L51.4384 17.1827C51.1418 17.3664 50.7749 17.3767 50.3964 17.3195C50.0145 17.2617 49.5756 17.1277 49.1053 16.9747C48.1523 16.6648 47.0346 16.266 45.8104 16.1427C44.5941 16.0202 43.2808 16.1717 41.9471 16.965C40.6101 17.7604 39.2319 19.2134 37.911 21.7306L37.8485 21.8488L37.7147 21.8527C35.811 21.9085 34.399 21.9973 33.1903 22.4679C31.9982 22.9321 30.9826 23.7779 29.9052 25.3976C29.4769 26.2839 29.369 27.2769 29.2128 28.2814C29.0588 29.2714 28.8566 30.2748 28.1903 31.0607C28.0564 31.2187 27.8908 31.28 27.7274 31.2911C27.5789 31.3012 27.4253 31.2698 27.3094 31.2472L27.2557 31.2365L27.2118 31.2023C26.5784 30.7026 26.2831 29.9754 26.2196 29.2277L26.2206 29.2267C25.7346 25.1684 28.6756 20.7977 32.6444 19.6749C33.4377 19.4505 34.0508 19.3276 34.5458 19.2228C35.045 19.117 35.4092 19.0323 35.7333 18.8898C36.3636 18.6125 36.8782 18.0975 37.8348 16.6075C38.4392 15.6663 39.5252 14.9411 40.7079 14.4161C41.894 13.8897 43.2067 13.5521 44.3036 13.3995Z" fill="black" stroke="black" stroke-width="0.458571"/>
<path d="M70.9109 15.6184C73.4017 15.4762 75.5325 15.8989 77.322 16.9231C79.0826 17.9308 80.4937 19.5105 81.5935 21.6653C84.0825 22.0168 86.4469 23.1475 88.0779 24.8889C89.7397 26.6633 90.6358 29.0668 90.1228 31.8928C90.0757 32.1523 89.9249 32.3351 89.7585 32.4661C89.5973 32.593 89.4054 32.6832 89.2585 32.7542L89.2029 32.7805L89.1423 32.7766C88.7347 32.7476 88.4115 32.6517 88.1589 32.4905C87.9037 32.3274 87.7365 32.1072 87.6267 31.8577C87.5188 31.6123 87.4655 31.3386 87.4343 31.0637C87.4039 30.7958 87.3914 30.5058 87.3738 30.2307C86.9271 27.9608 86.0288 26.6524 84.7585 25.8303C83.4688 24.9958 81.769 24.6424 79.6765 24.3489L79.5457 24.3313L79.4958 24.2083C78.6875 22.2186 77.5334 20.5378 76.031 19.5266C74.5381 18.5219 72.6812 18.1641 70.4226 18.8499C69.8351 19.0282 68.8278 19.2655 68.0525 19.1633C67.6642 19.1121 67.2807 18.9683 67.0652 18.6321C66.848 18.2931 66.8474 17.8311 67.0515 17.2542L67.0681 17.2073L67.1023 17.1721C67.5922 16.6605 68.2203 16.3586 68.8748 16.1428C69.521 15.9298 70.2349 15.7893 70.8669 15.6252L70.8884 15.6194L70.9109 15.6184Z" fill="black" stroke="black" stroke-width="0.458571"/>
<path d="M39.0987 49.3037C40.0842 48.9602 41.1586 48.9571 42.1456 49.2959C43.978 49.925 45.2145 51.6207 45.2374 53.5352C45.2604 55.4496 44.0649 57.1731 42.2481 57.8447C39.8503 58.7312 37.1803 57.517 36.3047 55.1426C35.4293 52.768 36.6845 50.145 39.0987 49.3037ZM39.8711 50.7647C39.5174 50.6432 39.1316 50.6435 38.7784 50.7666C37.9131 51.0683 37.4626 52.0092 37.7764 52.8604C37.9322 53.2826 38.247 53.602 38.629 53.7783C38.6704 53.0315 39.158 52.3462 39.918 52.0811C40.2513 51.9649 40.6091 51.9422 40.9522 52.0117C40.8472 51.441 40.4394 50.9599 39.8711 50.7647Z" fill="black"/>
<path d="M67.258 49.3025C68.2435 48.9591 69.318 48.9568 70.3049 49.2957C72.1373 49.9247 73.3738 51.6204 73.3967 53.5349C73.4196 55.4492 72.2241 57.1728 70.4074 57.8445C68.0095 58.7311 65.3387 57.5168 64.4631 55.1423C63.5876 52.7677 64.8437 50.1437 67.258 49.3025ZM68.0305 50.7644C67.6766 50.6429 67.291 50.6432 66.9377 50.7664C66.0723 51.068 65.6219 52.0089 65.9357 52.8601C66.0916 53.2823 66.4064 53.6018 66.7883 53.7781C66.8298 53.0312 67.3172 52.3459 68.0773 52.0808C68.4107 51.9646 68.7684 51.9419 69.1115 52.0115C69.0066 51.4408 68.5986 50.9597 68.0305 50.7644Z" fill="black"/>
<path d="M49.9464 9.70715C50.7751 9.69222 51.8333 9.95954 52.8976 10.4044C53.9658 10.851 55.061 11.4848 55.9659 12.2218C56.8669 12.9556 57.6006 13.809 57.9122 14.7003C58.0692 15.1494 58.1205 15.6123 58.0275 16.0724C57.9344 16.5328 57.6995 16.9761 57.3077 17.3907L57.2423 17.4601L57.1466 17.463C56.7275 17.474 56.5862 17.418 56.2159 17.3234L56.171 17.3116L56.1329 17.2833C55.565 16.846 55.2885 16.287 55.0372 15.755C54.7824 15.2155 54.5529 14.7028 54.09 14.256C53.7754 13.9524 53.3727 13.7242 52.92 13.5284C52.465 13.3317 51.9799 13.1758 51.4923 13.0031C50.5479 12.6684 49.5692 12.2672 49.1534 11.3605L49.131 11.3136L49.132 11.2609C49.1444 10.5894 49.443 10.263 49.7628 9.80481L49.8292 9.70911L49.9464 9.70715Z" fill="black" stroke="black" stroke-width="0.458571"/>
<path d="M67.1259 11.4717C67.5674 11.4477 68.4349 11.3292 69.1766 11.3936C69.5509 11.426 69.9271 11.5061 70.2225 11.6875C70.4921 11.853 70.6888 12.0998 70.7557 12.4424L70.7762 12.5947V12.5967C70.8032 12.9818 70.8191 13.3533 70.6698 13.6436C70.5057 13.9625 70.1809 14.1262 69.701 14.209C68.9444 14.3395 68.3404 14.4109 67.8407 14.4795C67.337 14.5487 66.9428 14.6148 66.5829 14.7344C65.8796 14.968 65.2711 15.4161 64.2626 16.5928C64.1236 16.7886 64.0076 16.9585 63.9032 17.0938C63.7947 17.2343 63.6856 17.3552 63.5526 17.4512C63.2811 17.6469 62.9508 17.7089 62.4276 17.7451L62.3632 17.75L62.3065 17.7197C61.7384 17.4268 61.4749 16.9771 61.4393 16.4736C61.4051 15.9884 61.5836 15.4781 61.8387 15.0332C62.972 13.0576 65.0412 12.1084 67.0712 11.4814L67.0985 11.4736L67.1259 11.4717Z" fill="black" stroke="black" stroke-width="0.458571"/>
</svg>
