<svg width="133" height="87" viewBox="0 0 133 87" fill="none" xmlns="http://www.w3.org/2000/svg">
<g clip-path="url(#clip0_511_4424)">
<mask id="mask0_511_4424" style="mask-type:alpha" maskUnits="userSpaceOnUse" x="0" y="0" width="133" height="87">
<path d="M133 0H0V87H133V0Z" fill="#D9D9D9"/>
</mask>
<g mask="url(#mask0_511_4424)">
<path d="M20.2883 11.9847L20.5618 12.0004C23.0601 12.1847 24.7852 13.2978 26.3049 14.8207C26.6821 14.7814 27.0768 14.7431 27.4524 14.7201C29.7349 14.5605 31.9817 15.3509 33.6624 16.9037H33.6614C36.091 19.1243 37.1871 22.2943 37.5168 25.2836C39.7235 25.5645 41.5831 26.3855 43.1243 27.6664C44.411 28.7358 45.4295 30.0881 46.2483 31.6176C47.5152 30.6833 49.0361 30.0883 50.5403 29.767C52.8109 29.2819 55.2745 29.364 57.2561 30.0101L57.5129 30.1049C58.1081 30.35 58.6645 30.7561 59.0959 31.222C59.5772 31.7418 60.0704 32.5206 60.1086 33.4594L60.1252 33.8685L59.9319 34.2289C59.6214 34.808 59.1581 35.2387 58.5764 35.4769C58.0299 35.7007 57.4902 35.7097 57.0686 35.6654C56.3231 35.5871 55.4383 35.2495 55.1584 35.1644C52.7464 34.4313 50.2642 35.0424 48.636 36.8695C47.6716 37.9517 47.224 39.1122 46.4797 40.7738L46.1194 41.5775L45.2415 41.6547C44.1441 41.7505 43.022 41.8188 42.3127 42.0453C40.3249 42.6799 38.8096 44.5887 38.6204 46.6937L38.6135 46.7719L38.5989 46.849C38.5988 46.8617 38.59 46.981 38.594 47.2894C38.5971 47.5297 38.6104 48.0044 38.6125 48.3392C38.615 48.7116 38.6081 49.1475 38.5569 49.5443C38.5311 49.7436 38.4893 49.9778 38.4124 50.2103C38.341 50.4257 38.2015 50.7597 37.9114 51.0511C37.4114 51.5532 36.7344 51.9931 35.9016 51.9867C35.0439 51.9799 34.4375 51.5057 34.0823 51.0853C33.4296 50.313 33.1646 49.2177 33.1184 48.5385C32.7059 42.4719 36.4526 37.4561 42.3899 36.4926L42.425 36.3851C41.6479 33.3854 39.6689 30.999 36.9016 30.7699C36.5582 30.7415 36.2542 30.7738 35.5891 30.7699C35.0917 30.767 34.2926 30.7427 33.6008 30.4115L33.2288 30.2328L33.0002 29.89C32.7124 29.4577 32.5815 28.8921 32.509 28.5404C32.4212 28.1142 32.3531 27.6283 32.2961 27.1693C32.171 26.1597 32.1045 25.3702 32.0178 24.9506C31.5872 22.8673 30.9012 21.4113 29.4065 20.3676C28.5935 19.7999 27.908 19.9845 26.2034 20.4847L26.1282 20.5062L26.05 20.5209C25.2838 20.6605 24.622 20.4309 24.1409 20.1595C23.6738 19.8962 23.2768 19.5379 22.9739 19.2416C22.8166 19.0877 22.665 18.9306 22.5305 18.7904C22.3907 18.6447 22.2719 18.52 22.1555 18.4037C21.9027 18.151 21.778 18.0594 21.7346 18.0355C20.4679 17.339 19.4042 17.3498 18.511 17.7025C17.5621 18.0774 16.651 18.9041 15.9202 20.0873C14.4152 22.5237 14.0565 25.8006 15.1038 27.8304C15.3593 28.3255 15.7183 29.0137 16.0374 29.6976C16.3425 30.3517 16.6725 31.1292 16.8147 31.7826L16.9338 32.3285L16.6663 32.8187C15.5226 34.916 14.9712 35.9696 15.1204 37.9769C15.3318 40.8246 17.5191 43.2975 20.3186 44.6683V44.6693C20.8735 44.9411 21.3645 45.0634 22.1526 45.3383C22.7888 45.5602 23.5182 45.8567 24.2366 46.3871L24.5442 46.6293L24.551 46.6361L24.6721 46.7386L25.4172 47.3744L25.134 48.3129C24.959 48.8932 24.8368 49.2227 24.6672 49.8041C24.5187 50.3135 24.4302 50.7162 24.4114 51.0013C24.3081 52.57 25.1945 54.0856 26.803 55.3588C28.4044 56.6262 30.4841 57.4456 32.1536 57.641C32.1898 57.6452 32.2204 57.6456 32.2454 57.6469C32.2548 57.6294 32.2686 57.6105 32.2805 57.5863C32.3283 57.4892 32.3758 57.3778 32.4456 57.2123C32.5093 57.0609 32.5918 56.863 32.6897 56.6625C32.8886 56.2548 33.1906 55.7439 33.7043 55.309C34.3585 54.7534 35.2247 54.5146 36.0715 54.6566C36.0733 54.6569 36.0756 54.6573 36.0774 54.6576C36.0797 54.658 36.082 54.6582 36.0842 54.6586H36.0833C36.5448 54.7359 37.0369 54.9269 37.4338 55.3246C37.8403 55.732 38.0156 56.2241 38.0696 56.6586C38.1653 57.4288 37.9034 58.2046 37.7004 58.7162C37.4766 59.2804 37.1784 59.8593 36.9631 60.2875C36.8484 60.5157 36.7577 60.6998 36.6897 60.8519C36.6145 61.0202 36.6053 61.067 36.6116 61.0385C36.5354 61.3877 36.5345 62.0171 36.6799 62.6761C36.8328 63.3688 37.0737 63.7647 37.2112 63.8871C38.0936 64.6714 38.7694 65.4317 39.0959 66.2474C39.4845 67.2182 39.3108 68.0739 38.9387 68.7709C38.7762 69.0751 38.578 69.3478 38.4104 69.5687C38.2087 69.8345 38.0922 69.9759 37.9094 70.223C37.5996 70.6418 37.3267 71.0763 37.1389 71.6312L37.135 71.641C36.6976 72.9051 36.8675 74.9416 37.4983 76.3002V76.3011C37.6066 76.5344 37.7848 76.8218 38.0442 77.2308C38.2796 77.6021 38.5795 78.0709 38.8186 78.5463L39.1262 79.1566L38.8665 79.7894C38.6212 80.3879 38.3445 80.927 38.092 81.4066C37.8306 81.9033 37.607 82.3145 37.4104 82.7445C37.0858 83.4543 36.8681 84.1455 36.8508 84.9984L36.8557 85.3754V85.3871L36.8567 85.3988C36.924 87.6089 38.2496 89.9046 40.092 90.8539L40.2727 90.9418L40.2834 90.9467C40.6377 91.1129 40.9593 91.2179 41.3186 91.3353C41.6308 91.4374 42.1124 91.5891 42.5364 91.848C43.0346 92.1523 43.4508 92.5944 43.7083 93.2318C43.9408 93.8076 44.0101 94.4614 44.0061 95.1566C43.9823 99.3416 47.1416 103.228 51.2297 104.308L51.5735 104.391C53.2792 104.769 54.8375 104.581 56.9846 104.466L57.6458 104.431L58.1165 104.895C58.7187 105.487 59.3052 106.065 59.885 106.585C63.8248 110.121 69.6969 111.164 74.3752 108.785C76.3287 107.79 77.7083 106.627 79.218 104.894L79.6868 104.355L80.4006 104.38C81.9339 104.433 83.35 104.498 84.7385 104.421C88.6765 104.179 91.8794 101.361 92.7043 97.4886C93.0705 95.7691 92.8007 95.113 92.6272 92.9232L92.552 91.976L93.3772 91.5033C95.057 90.5409 96.2687 89.688 97.1624 88.6566C98.0306 87.6545 98.6655 86.4041 99.0393 84.5453C99.3894 82.7987 99.0302 80.3629 98.217 78.6771L98.0491 78.35C97.6039 77.5442 96.8016 76.5668 96.0852 75.5482L95.6819 74.974L95.8635 74.2972C96.0968 73.4268 96.3768 72.5752 96.5725 71.9144C96.7808 71.2111 96.9258 70.6254 96.9846 70.0599C97.0921 69.0262 96.9314 67.8918 95.8879 66.2152C95.7469 65.9933 95.5839 65.8337 95.2122 65.3695C94.9358 65.0243 94.4892 64.4397 94.3235 63.7152C94.1692 63.0416 94.2482 62.3418 94.6311 61.7445C94.9977 61.1728 95.5445 60.8491 96.05 60.6927C96.9878 60.4028 98.2259 60.5639 99.0549 61.3969C101.184 63.5357 102.131 66.198 102.414 68.975H102.413C102.63 70.7908 102.116 72.6076 101.766 73.9828C101.783 74.0126 101.801 74.045 101.822 74.0785C101.912 74.2284 102.011 74.3861 102.106 74.5355L102.355 74.932L102.356 74.934C106.601 82.0534 104.799 90.2768 98.2327 95.0404C98.2346 95.1021 98.2375 95.1617 98.2375 95.2191C98.2377 95.404 98.2298 95.5791 98.2229 95.7211C98.2155 95.8743 98.209 95.9821 98.2073 96.0863C98.2058 96.1725 98.2093 96.2306 98.2122 96.2679C101.8 98.8311 107.294 98.3694 109.983 94.9545V94.9535C111.759 92.6986 111.986 90.5751 111.657 87.4877L111.562 86.5873L112.314 86.0834C114.852 84.3807 116.557 82.3109 117.423 80.0101C118.287 77.7168 118.361 75.0773 117.448 72.1449V72.1439C116.813 70.1158 115.338 68.101 113.568 66.8099C113.465 66.7355 113.276 66.6259 112.959 66.4681C112.809 66.3935 112.649 66.3162 112.473 66.2318C112.301 66.1492 112.114 66.0604 111.927 65.9681C111.558 65.7857 111.148 65.5716 110.773 65.3285C110.41 65.0939 109.987 64.7746 109.664 64.351L109.499 64.1342L109.42 63.8734C109.119 62.8709 109.067 61.8345 109.012 61.0228C108.953 60.1493 108.888 59.4592 108.67 58.8158V58.8148C107.557 55.5248 104.976 53.2719 101.605 52.6469L101.276 52.5912C101.144 52.5712 100.964 52.5688 100.632 52.5726C100.353 52.5759 99.9283 52.5853 99.5168 52.5316C99.0964 52.4768 98.5314 52.34 98.0256 51.9379C97.4862 51.5089 97.1787 50.9112 97.0559 50.2474V50.2465C96.8899 49.3506 97.1761 48.5119 97.7561 47.9232C98.3083 47.363 99.0606 47.0886 99.8 47.0756C103 47.0193 106.479 48.1555 109.045 50.1117L109.291 50.3031L109.307 50.3168L109.323 50.3304C112.999 53.4485 114.083 56.8769 114.585 61.0179C116.576 62.0936 118.867 63.8848 120.126 65.6351C123.034 69.6749 124.127 74.1977 123.453 78.516C122.817 82.5898 120.624 86.3804 117.089 89.3451C117.241 91.7197 116.954 93.8217 115.74 96.0668L115.455 96.5687C111.293 103.551 103.503 104.8 96.9456 101.789C96.5276 102.704 96.0614 103.539 95.4875 104.319C94.5987 105.527 93.5013 106.543 92.0481 107.536C89.2799 109.429 85.4316 110.254 82.0754 109.83C79.7973 112.515 76.4224 114.207 72.9377 114.963C69.1397 115.788 65.009 115.549 61.6731 114.095V114.094C59.7082 113.239 57.2749 111.863 55.594 110.06C48.8864 110.536 42.5006 107.457 39.7405 100.803C39.0823 99.2162 38.851 97.6614 38.6936 96.1761C36.7737 95.4553 35.2214 94.3294 34.0422 92.851C32.6786 91.1411 31.8718 89.0379 31.5012 86.7181C31.2926 85.4121 31.4547 83.8484 31.8079 82.4349C32.07 81.3858 32.4642 80.3103 32.9807 79.3949C30.8398 75.5803 30.8362 71.2412 33.1516 67.5033C32.5977 66.7773 32.1772 66.0531 31.8655 65.2601C31.5655 64.4968 31.3817 63.7094 31.2512 62.8646C26.5942 62.1128 22.1217 59.8705 19.8713 55.0092C19.3634 53.9119 19.0683 52.9072 19.0149 51.8402C18.984 51.2225 19.0379 50.6202 19.1487 50.0082C13.804 47.6956 9.23617 43.2579 9.68579 36.3793C9.79877 34.6507 10.3757 33.1699 10.9778 31.8314C9.17024 28.3069 8.65999 24.3336 9.62036 20.7963C10.6555 16.9838 13.3851 13.7571 17.8157 12.2631L17.8655 12.2465L17.9163 12.2338C18.6898 12.032 19.4895 11.948 20.2883 11.9847Z" fill="black" stroke="white" stroke-width="3"/>
<path d="M77.5964 29.2296C80.2282 28.7029 82.6669 28.9101 84.8318 29.8888C86.7711 30.7655 88.392 32.2177 89.7078 34.1222C93.2662 34.4048 96.6179 35.9309 98.6345 39.3868L98.6355 39.3878C99.0509 40.1011 99.6156 41.4504 99.8699 42.7833C99.9969 43.4492 100.069 44.2232 99.9373 44.9591C99.8019 45.7155 99.4147 46.5838 98.5056 47.0978L98.1902 47.2765L97.8279 47.2911C97.2876 47.3129 96.7615 47.2096 96.2878 46.9493C95.8179 46.691 95.4872 46.3267 95.2595 45.9601C94.8708 45.3342 94.7309 44.6122 94.6599 44.1193C93.9416 41.48 92.1819 39.736 89.821 39.7765C88.8396 39.8452 87.8983 39.7731 87.0359 39.2784C86.1857 38.7906 85.6284 38.0111 85.1482 37.2179C83.7116 34.8448 80.8922 33.8023 78.3552 34.7745L78.2478 34.8156L78.1355 34.84C78.1643 34.8337 78.0838 34.8581 77.7546 34.9786C77.4952 35.0737 77.15 35.2016 76.8035 35.3165C76.4668 35.4282 76.0663 35.5496 75.698 35.6163C75.5175 35.649 75.2806 35.6806 75.031 35.671C74.8357 35.6635 74.329 35.6243 73.8884 35.2394V35.2384C73.0836 34.5347 72.4403 33.5185 72.7712 32.3116C73.0469 31.3069 73.8896 30.7051 74.4382 30.3849C75.6209 29.6947 77.213 29.3263 77.5144 29.2482L77.5544 29.2374L77.5964 29.2296Z" fill="black" stroke="white" stroke-width="3"/>
<path d="M56.2046 25.4557C57.3998 25.2839 58.7573 25.5292 59.9858 25.942C61.2393 26.3632 62.5082 27.0091 63.564 27.7867C64.5861 28.5397 65.5736 29.5377 66.0122 30.7262C66.2419 31.3486 66.33 32.053 66.1519 32.7789C65.9734 33.5056 65.5582 34.1305 64.9878 34.6451L64.6069 34.9879L64.0962 35.027C63.3395 35.0843 62.7118 34.8081 62.2515 34.4889C61.8061 34.1801 61.4424 33.7807 61.1597 33.4342C60.8762 33.0868 60.5997 32.6968 60.3823 32.399C60.1692 32.1072 60.0034 31.8918 59.8599 31.734C59.8324 31.719 59.7765 31.6896 59.6812 31.649C59.472 31.5602 59.1888 31.4621 58.8296 31.3492C58.171 31.1424 57.2052 30.8742 56.4409 30.5885C56.0468 30.4412 55.6257 30.261 55.2554 30.0377C54.9193 29.8351 54.4289 29.4827 54.1489 28.9078C53.7979 28.1869 53.9166 27.4279 54.3091 26.8307C54.6383 26.3298 55.1446 25.9516 55.6528 25.65L55.9097 25.4977L56.2046 25.4557Z" fill="black" stroke="white" stroke-width="3"/>
<path d="M75.7097 25.0488C75.9502 25.0423 76.4699 25.0354 76.9402 25.2207L76.946 25.2227C77.7685 25.5509 78.4151 26.2111 78.7253 27.041L78.824 27.3066L78.8201 27.5889C78.8079 28.3867 78.5043 29.0682 77.9812 29.5732C77.505 30.033 76.9292 30.2679 76.4744 30.4033C76.0113 30.5411 75.5354 30.6144 75.1746 30.666C74.7577 30.7257 74.5334 30.7527 74.3689 30.7939L74.3699 30.7949C73.9517 30.8997 73.5351 31.1818 73.0896 31.6914C72.6369 32.2093 72.2485 32.8485 71.8396 33.543L71.7078 33.7676L71.5066 33.9346C71.2718 34.13 70.8749 34.4637 70.3503 34.6299C69.7488 34.8204 69.1933 34.7392 68.7195 34.6006L68.4666 34.5264L68.2537 34.3701C67.5323 33.8408 67.1455 33.1074 67.0632 32.3193C66.9876 31.595 67.176 30.9158 67.4001 30.3818C67.8461 29.3197 68.6353 28.3634 69.1902 27.8232C70.04 26.996 70.8857 26.3871 71.8416 25.9473C72.7889 25.5114 73.7775 25.273 74.8679 25.1113L74.9138 25.1045L74.9607 25.1006C75.0947 25.0892 75.4094 25.057 75.7097 25.0488Z" fill="black" stroke="white" stroke-width="3"/>
<path d="M35.5 79.5L33.5 87H117L121 79.5L120 70.5L116 65L111.5 61L109.5 54.5L100.5 49.5L97.5 45L94 39L87 35.5L83 32.5H77H63H52L44 35.5L42.5 30L35.5 27L33.5 22L30.5 17.5L24 16.5L18.5 14.5L12 22L13.5 32.5V42L21.5 48.5L23 56L33.5 61L35.5 68L33.5 73L35.5 79.5Z" fill="white"/>
<path d="M20.2336 13.183C22.6891 13.2952 24.2893 14.4012 25.8489 16.0756C26.3938 16.0166 26.9861 15.9506 27.5334 15.9174L27.8997 15.9017C29.7249 15.8678 31.4988 16.5387 32.8469 17.7836C35.2457 19.9725 36.2362 23.2865 36.4026 26.391C38.8378 26.5068 40.791 27.2871 42.3577 28.5892C43.8628 29.8403 44.9949 31.5587 45.8635 33.5883C47.064 32.2086 48.8825 31.3486 50.7913 30.9408C52.8836 30.4938 55.1295 30.5787 56.884 31.1508C57.3511 31.303 57.8386 31.6309 58.2151 32.0375C58.5892 32.4415 58.8871 32.9606 58.9094 33.5082L58.9133 33.5902L58.8743 33.6625C58.6863 34.013 58.4276 34.2411 58.1213 34.3666C57.8221 34.4891 57.5001 34.5042 57.1936 34.472C56.6002 34.4097 55.9464 34.1493 55.5081 34.016C52.6904 33.1595 49.7083 33.8635 47.7405 36.0717C46.6226 37.3261 46.0947 38.6982 45.385 40.2826L45.3127 40.4437L45.137 40.4594C44.258 40.5361 43.1441 40.6042 42.2942 40.807L41.9475 40.9027C39.4911 41.6869 37.6567 44.0096 37.425 46.5863L37.4241 46.6019L37.4211 46.6176C37.3958 46.7466 37.3896 46.9824 37.3938 47.3051C37.3977 47.6062 37.411 47.9931 37.4133 48.347C37.4157 48.7085 37.4069 49.0779 37.3665 49.391C37.3462 49.5476 37.3169 49.6988 37.2727 49.8324C37.2296 49.9626 37.1653 50.0995 37.0608 50.2045C36.6787 50.5881 36.2941 50.7894 35.9114 50.7865C35.5236 50.7835 35.2188 50.5719 34.9983 50.3109C34.569 49.8027 34.3519 48.9894 34.3157 48.4574C33.9267 42.739 37.5831 38.1491 43.2952 37.5844L43.6721 36.433C42.8984 33.0424 40.6148 29.8736 37.0002 29.5746C36.6036 29.5418 36.1306 29.5728 35.5959 29.5697C35.0948 29.5667 34.5439 29.5317 34.1194 29.3285L34.0442 29.2933L33.9993 29.225C33.8562 29.0101 33.7587 28.6614 33.6838 28.2982C33.6059 27.9202 33.5425 27.472 33.4866 27.0209C33.3725 26.1004 33.2922 25.1889 33.1926 24.7074C32.7319 22.4788 31.9445 20.6759 30.093 19.3832C28.7285 18.4307 27.4333 18.8733 25.8655 19.3334L25.8508 19.3373L25.8352 19.3402C25.4347 19.4132 25.0614 19.3001 24.7307 19.1136C24.4029 18.9288 24.0949 18.6602 23.8127 18.3842C23.6705 18.245 23.5312 18.1005 23.3967 17.9603C23.2612 17.8191 23.1317 17.6826 23.0042 17.5551C22.7448 17.2959 22.5172 17.0962 22.3127 16.9838C20.7514 16.1253 19.3146 16.0945 18.0696 16.5863C16.8134 17.0825 15.7222 18.1232 14.8987 19.4564C13.2429 22.1369 12.7421 25.8714 14.0374 28.3812C14.2965 28.8834 14.6427 29.5479 14.9495 30.2054C15.2534 30.8569 15.5308 31.5272 15.6418 32.0375L15.6663 32.1469L15.6125 32.2445C14.4648 34.3494 13.7457 35.6775 13.9231 38.0658C14.1768 41.4831 16.7599 44.2621 19.7913 45.7465C20.4321 46.0603 21.0701 46.2324 21.7571 46.472C22.4319 46.7074 23.1206 46.9995 23.7708 47.5472L23.7727 47.5482L23.8928 47.6517L24.0413 47.7787L23.9846 47.9662C23.8418 48.4395 23.6735 48.9278 23.5159 49.4681C23.3624 49.9942 23.2419 50.5013 23.2141 50.9232C23.075 53.0386 24.2848 54.8961 26.0588 56.3002C27.8314 57.703 30.1193 58.6116 32.0139 58.8334C32.457 58.8852 32.7231 58.8111 32.9026 58.6957C33.0879 58.5764 33.225 58.3853 33.3577 58.1156C33.4237 57.9813 33.4844 57.8364 33.551 57.6781C33.6166 57.5225 33.6877 57.355 33.7688 57.1888C33.9316 56.8553 34.1443 56.509 34.4797 56.225C34.8666 55.8957 35.3803 55.7549 35.8811 55.8412H35.8801C36.168 55.8886 36.4079 55.9956 36.5842 56.1722C36.7621 56.3506 36.8493 56.5745 36.8782 56.807C36.9334 57.2523 36.7807 57.78 36.5852 58.2728C36.3855 58.7762 36.1169 59.3008 35.8918 59.7484C35.7779 59.975 35.6755 60.1815 35.595 60.3617C35.5129 60.5453 35.4609 60.6849 35.4397 60.7816C35.317 61.3428 35.3358 62.1543 35.5081 62.9349C35.6818 63.7221 35.9975 64.414 36.4143 64.7845C37.2648 65.5405 37.764 66.1475 37.9827 66.6937C38.2136 67.2709 38.1213 67.7536 37.8801 68.2054C37.7642 68.4225 37.6137 68.6341 37.4543 68.8441C37.2883 69.063 37.1242 69.2663 36.9446 69.5092C36.5961 69.9802 36.2453 70.5281 36.0022 71.2465L36.0012 71.2484C35.4464 72.8518 35.6693 75.2121 36.4094 76.806L36.5344 77.0521C36.6714 77.305 36.844 77.5793 37.0305 77.8734C37.2745 78.2582 37.5402 78.6735 37.7473 79.0853L37.8079 79.2074L37.7561 79.3344C37.5339 79.8766 37.2794 80.3734 37.0295 80.848C36.778 81.3258 36.5339 81.7768 36.3196 82.2455C35.9217 83.1156 35.6348 84.0314 35.6497 85.1947L35.6565 85.431L35.6575 85.4359C35.736 88.0143 37.2578 90.7473 39.5481 91.9232L39.7717 92.0326L39.7737 92.0336C40.2034 92.2353 40.5911 92.3601 40.9456 92.476C41.2907 92.5888 41.6296 92.6994 41.9114 92.8715C42.2079 93.0526 42.4427 93.3016 42.5959 93.681C42.7442 94.0482 42.8095 94.5231 42.8059 95.1498C42.7788 99.9214 46.3449 104.259 50.9231 105.468L51.3098 105.562C53.2329 105.988 55.0022 105.774 57.0491 105.664L57.1809 105.658L57.2756 105.75C57.8725 106.338 58.479 106.936 59.0833 107.479C63.3509 111.309 69.7518 112.483 74.9192 109.855L75.3088 109.65C77.2245 108.615 78.6331 107.391 80.1223 105.682L80.2161 105.575L80.3586 105.579C81.8672 105.632 83.3481 105.699 84.803 105.62L85.2219 105.585C89.5218 105.144 92.9724 101.991 93.8782 97.7386C94.2924 95.7933 93.9831 94.8423 93.8235 92.8285L93.8088 92.639L93.9739 92.5443C95.688 91.5623 97.0406 90.6291 98.0686 89.4427C99.0917 88.262 99.8075 86.8137 100.216 84.7816L100.286 84.3695C100.585 82.2669 100.096 79.5737 99.0989 77.7699C98.6137 76.8916 97.7013 75.7601 97.0667 74.8578L96.9856 74.7435L97.0227 74.6078C97.252 73.7523 97.5112 72.97 97.7229 72.2552C97.9371 71.5321 98.1075 70.8615 98.178 70.184C98.3168 68.8483 98.0705 67.448 96.9006 65.5717L96.7454 65.35C96.5761 65.1264 96.3675 64.8927 96.1487 64.6195C95.8761 64.2791 95.5926 63.881 95.4934 63.4476C95.4 63.0398 95.4581 62.6797 95.6418 62.3929C95.8224 62.1113 96.1043 61.9321 96.4045 61.8392C96.9902 61.6581 97.7412 61.7782 98.2043 62.2435C100.088 64.136 100.955 66.5106 101.219 69.0902C101.435 70.8349 100.867 72.554 100.492 74.1254C100.502 74.155 100.52 74.199 100.548 74.2572C100.607 74.3778 100.694 74.531 100.793 74.6957C100.891 74.8591 100.997 75.0279 101.092 75.1781L101.324 75.5482C105.364 82.3208 103.5 90.1226 96.9602 94.4642C97.0921 95.0525 97.0153 95.6359 97.0081 96.0658C97.0037 96.3231 97.0205 96.536 97.0852 96.7201C97.147 96.8956 97.2575 97.0607 97.47 97.2142L97.8547 97.4779C101.893 100.101 107.873 99.5736 110.925 95.6967C112.977 93.092 113.195 90.5976 112.851 87.3607L112.831 87.181L112.982 87.0795C115.689 85.2637 117.576 83.0082 118.546 80.433C119.515 77.8595 119.577 74.9433 118.594 71.7885C117.879 69.5016 116.243 67.2756 114.275 65.8402C114.085 65.7019 113.816 65.5544 113.494 65.3939C113.335 65.3145 113.166 65.2345 112.991 65.1508C112.818 65.0673 112.638 64.9804 112.459 64.892C112.103 64.7155 111.741 64.526 111.424 64.3207C111.109 64.1171 110.819 63.887 110.618 63.6234L110.585 63.5795L110.57 63.5277C110.315 62.6811 110.267 61.7927 110.209 60.9408C110.15 60.0766 110.081 59.2399 109.807 58.4301C108.515 54.6135 105.437 52.0089 101.456 51.4047C101.211 51.3675 100.931 51.3688 100.618 51.3724C100.316 51.3759 99.9828 51.3817 99.6721 51.3412C99.3597 51.3005 99.0387 51.2099 98.7727 50.9984C98.5001 50.7816 98.3169 50.4633 98.2366 50.0297L98.2131 49.8431C98.1848 49.4167 98.3388 49.0419 98.6106 48.766C98.9156 48.4564 99.3555 48.283 99.8215 48.2748C102.848 48.2216 106.174 49.3434 108.54 51.2396L108.547 51.2455C112.076 54.2393 113.009 57.5015 113.464 61.7933C115.438 62.7416 117.906 64.6047 119.153 66.3363C121.891 70.1402 122.89 74.3484 122.268 78.3314C121.653 82.2668 119.459 85.9587 115.843 88.8109C116.091 91.4614 115.833 93.5931 114.425 95.9545L114.424 95.9535C110.414 102.681 102.684 103.645 96.3381 100.14C95.8094 101.492 95.2548 102.61 94.5208 103.608C93.7278 104.686 92.7364 105.611 91.3704 106.545C88.6753 108.387 84.7883 109.135 81.5715 108.539C79.5227 111.264 76.2137 113.024 72.6829 113.79C69.0852 114.571 65.2179 114.331 62.1526 112.995C60.0737 112.09 57.5898 110.635 56.0969 108.812C56.0666 108.815 56.036 108.819 56.0051 108.822C49.5319 109.46 43.4428 106.597 40.8489 100.343C40.1515 98.6618 39.9759 97.0124 39.8088 95.2885C37.748 94.6602 36.1504 93.5708 34.9797 92.1029C33.7743 90.5914 33.0329 88.6954 32.6868 86.5287C32.5123 85.4362 32.6421 84.045 32.9719 82.725C33.2811 81.4877 33.7739 80.278 34.3889 79.4076C31.946 75.5723 31.9671 71.1278 34.6448 67.4301C33.8563 66.5356 33.3355 65.7185 32.9827 64.8207C32.6311 63.9261 32.4508 62.9672 32.3215 61.8031C27.5706 61.2354 23.1201 59.1682 20.9612 54.5043C20.4977 53.5031 20.2568 52.6519 20.2131 51.7806C20.1734 50.9873 20.2989 50.1949 20.5432 49.2797C15.0391 47.1917 10.4557 42.9952 10.8831 36.4574C10.9958 34.7328 11.6312 33.2693 12.3157 31.7865C10.4108 28.3745 9.85986 24.4946 10.7786 21.1107C11.7119 17.673 14.1587 14.7631 18.1985 13.4008L18.2092 13.3969L18.219 13.3949C18.8759 13.2236 19.5554 13.1518 20.2336 13.183Z" fill="black" stroke="black" stroke-width="0.6"/>
<path d="M66.4457 79.399C67.3326 79.3388 68.627 79.283 69.8529 79.3971C70.4655 79.4541 71.0468 79.5522 71.5443 79.7067C72.0463 79.8626 72.4296 80.0651 72.6791 80.3092C73.0328 80.6556 73.1571 80.8971 73.2191 81.1383C73.2877 81.4051 73.2887 81.6815 73.3158 82.1754C72.8354 83.2673 72.3521 83.8642 71.7806 84.3522C71.4767 84.6117 71.1417 84.8461 70.7474 85.1139C70.3575 85.3787 69.9119 85.6744 69.4154 86.0426L69.3295 86.1061L69.2767 86.1998C69.0908 86.5308 69.0643 86.9129 69.0834 87.2242C69.0981 87.4649 69.1429 87.7 69.1937 87.902L69.2455 88.0924C69.9232 90.3646 71.8195 91.9683 73.9369 92.5514C76.0613 93.1362 78.4692 92.7078 80.1439 90.8405C80.3896 90.5663 80.6108 90.1961 80.807 89.8639C81.015 89.5118 81.2051 89.1842 81.4105 88.9166C81.6202 88.6434 81.7943 88.5035 81.9379 88.4547C82.0419 88.4194 82.2006 88.4069 82.475 88.5963C82.5922 88.6773 82.6462 88.7781 82.6595 88.9303C82.6748 89.1048 82.632 89.3386 82.5267 89.6188C82.3171 90.1769 81.9229 90.7567 81.6664 91.0924H81.6654L81.6576 91.1031C80.252 93.0534 78.4053 93.7822 75.972 94.0983L75.5677 94.151L75.5385 94.5573C75.387 96.6407 75.2151 98.3124 74.6029 99.6949C74.0436 100.958 73.0994 102.012 71.3578 102.875L70.9994 103.045L70.9935 103.047C70.7733 103.151 70.3859 103.249 69.9408 103.324C69.6165 103.379 69.2881 103.417 69.0189 103.439L68.7709 103.456C67.0996 103.534 65.4677 102.935 64.2426 101.795L64.2386 101.792L64.0482 101.611C62.1302 99.7177 61.7628 97.0511 61.6185 94.2789L61.597 93.8668L61.1888 93.8102L60.639 93.7233C59.3926 93.4998 58.3835 93.1324 57.5101 92.5709C56.512 91.9291 55.6576 91.0116 54.8285 89.693C54.605 89.3374 54.3715 88.7706 54.3578 88.3014C54.3512 88.0744 54.3967 87.915 54.472 87.8092C54.5368 87.7184 54.6605 87.6151 54.9271 87.5592C54.9295 87.5598 54.9322 87.5605 54.9349 87.5612C54.9774 87.5715 55.0346 87.5903 55.0961 87.6149C55.1577 87.6396 55.2123 87.6657 55.2494 87.6871C55.2507 87.6879 55.2521 87.6884 55.2533 87.6891C55.5917 88.1677 55.8707 88.6613 56.2123 89.2018C56.5099 89.6726 56.842 90.1546 57.2611 90.5885L57.4457 90.7711C60.0376 93.229 64.0773 92.7664 66.4222 90.3092C67.0797 89.6201 67.4486 89.0373 67.6332 88.3717C67.8107 87.7315 67.805 87.0494 67.8002 86.2281L67.7982 85.9098L67.5092 85.777L67.2396 85.6451C65.8897 84.9487 64.4957 83.6814 63.9496 82.4576C63.6645 81.8188 63.6373 81.2584 63.8734 80.7955C64.1128 80.3266 64.6849 79.8345 65.8705 79.4733C66.0615 79.4383 66.2532 79.4122 66.4447 79.3981L66.4457 79.399ZM69.1527 92.2799C69.1555 92.6504 69.2023 93.2734 69.2338 93.9244C69.2662 94.5968 69.2856 95.3421 69.2386 96.0309C69.1908 96.732 69.0772 97.3186 68.8812 97.7057C68.7862 97.8933 68.6844 98.0085 68.5853 98.0748C68.5175 98.1202 68.4357 98.1527 68.3285 98.1617C68.1269 97.9913 67.9719 97.6904 67.8773 97.2194C67.7694 96.6819 67.7599 96.0227 67.7826 95.3297C67.8042 94.6681 67.8587 93.932 67.8578 93.3649C67.8573 93.0741 67.8432 92.7904 67.7972 92.5446C67.754 92.3135 67.6685 92.0312 67.4584 91.8287L67.14 91.5221L66.7963 91.8014C66.131 92.3416 65.6388 92.6616 65.1176 92.9049C64.5892 93.1515 64.0127 93.3283 63.1566 93.566L62.7523 93.6783L62.7924 94.0953C62.9421 95.6612 62.9893 96.8661 63.6097 98.4489C64.6399 101.077 66.7961 102.31 68.9447 102.142C71.082 101.976 73.1035 100.432 73.9095 97.7565L73.9164 97.734L73.9213 97.7106C74.1555 96.5477 74.2535 95.7237 74.1849 95.1188C74.1494 94.8058 74.0676 94.5314 73.9232 94.2926C73.7778 94.0522 73.5868 93.8765 73.3754 93.7369C73.1705 93.6018 72.9379 93.495 72.7054 93.3961C72.4571 93.2905 72.2232 93.1996 71.9349 93.0719C71.3842 92.8279 70.7258 92.4866 69.9623 91.8834L69.1449 91.2379L69.1527 92.2799Z" fill="black" stroke="black"/>
<path d="M77.8318 30.4054C80.2586 29.9197 82.4367 30.1232 84.3376 30.9825C86.1954 31.8225 87.7645 33.2796 89.0388 35.2843C92.5391 35.4213 95.7271 36.7851 97.5984 39.9923C97.9492 40.5947 98.4638 41.8157 98.6912 43.0079C98.8048 43.6038 98.8508 44.2148 98.7556 44.7472C98.6596 45.2838 98.4123 45.7725 97.9148 46.0538L97.8523 46.089L97.78 46.0919C97.4258 46.1062 97.1209 46.0383 96.865 45.8976C96.61 45.7573 96.4206 45.5542 96.2791 45.3263C96.0064 44.8871 95.8977 44.3293 95.8337 43.8566C95.0399 40.878 92.9215 38.5141 89.783 38.5773L89.782 38.5763C88.88 38.6438 88.2056 38.5662 87.6326 38.2374C87.0625 37.9103 86.6365 37.3599 86.1746 36.5968C84.4578 33.7606 81.0408 32.4606 77.9255 33.6544L77.9041 33.6622L77.8816 33.6671C77.8064 33.6835 77.6211 33.7497 77.3425 33.8517C77.0773 33.9488 76.7509 34.0699 76.4255 34.1779C76.1021 34.2851 75.7668 34.3835 75.4841 34.4347C75.3435 34.4602 75.2027 34.4766 75.0769 34.4718C74.962 34.4673 74.8025 34.4435 74.6785 34.3351C74.0319 33.7698 73.7736 33.1937 73.9285 32.629C74.0723 32.1049 74.5473 31.7112 75.0427 31.422C76.051 30.8335 77.4584 30.5018 77.8152 30.4093L77.823 30.4073L77.8318 30.4054Z" fill="black" stroke="black" stroke-width="0.6"/>
<path d="M56.3755 26.6432C57.3111 26.5087 58.4648 26.6973 59.603 27.0797C60.7464 27.4639 61.9039 28.0534 62.853 28.7526C63.7954 29.4468 64.5657 30.2735 64.8862 31.1422C65.0485 31.5821 65.097 32.0397 64.9858 32.4928C64.8745 32.946 64.6095 33.3707 64.1841 33.7545L64.1079 33.8229L64.0054 33.8307C63.6051 33.861 63.2471 33.7189 62.9351 33.5026C62.6262 33.2883 62.3459 32.9899 62.0894 32.6754C61.8325 32.3606 61.584 32.0101 61.3511 31.691C61.1139 31.3662 60.8922 31.0726 60.6733 30.8453C60.5943 30.7633 60.4252 30.6612 60.1509 30.5446C59.8858 30.4319 59.5566 30.3202 59.189 30.2047C58.4655 29.9775 57.5865 29.7358 56.8608 29.4645C56.4956 29.3279 56.153 29.1783 55.8745 29.0104C55.6029 28.8466 55.3549 28.6429 55.228 28.3824C55.0869 28.0928 55.1193 27.7831 55.312 27.4899C55.492 27.2159 55.8128 26.9507 56.2651 26.6823L56.3169 26.652L56.3755 26.6432Z" fill="black" stroke="black" stroke-width="0.6"/>
<path d="M31.5269 34.7526C32.2776 34.6684 33.2549 34.8177 34.2876 35.1647C35.3574 35.5242 36.4398 36.0774 37.3179 36.7242C38.2069 37.3792 38.8328 38.0904 39.0747 38.7457C39.1921 39.0639 39.2154 39.3573 39.1489 39.6285C39.0927 39.8578 38.9639 40.1002 38.7271 40.3492C38.6074 40.3279 38.477 40.274 38.3306 40.1725C38.1125 40.0212 37.8872 39.79 37.6479 39.4967C37.4089 39.2037 37.1803 38.8797 36.937 38.5465C36.701 38.2233 36.4502 37.889 36.189 37.6178C35.9899 37.4112 35.6898 37.2574 35.4028 37.1354C35.1005 37.0069 34.7408 36.8854 34.3677 36.7682C33.601 36.5274 32.7805 36.3033 32.0806 36.0416C31.7347 35.9123 31.4442 35.7829 31.2271 35.652C30.9986 35.5142 30.911 35.4099 30.8862 35.359C30.8834 35.3561 30.8636 35.3429 30.9204 35.2565C30.9952 35.1428 31.171 34.9732 31.5269 34.7526Z" fill="black" stroke="black"/>
<path d="M75.7419 26.249C75.9849 26.2424 76.2815 26.2505 76.5007 26.3369H76.5017C77.0101 26.5398 77.4095 26.9481 77.6013 27.4609L77.6208 27.5146L77.6199 27.5713C77.6124 28.0566 77.4358 28.4313 77.1472 28.71C76.8681 28.9793 76.5011 29.1432 76.1326 29.2529C75.7622 29.3632 75.3632 29.4262 75.0046 29.4775C74.6348 29.5305 74.3206 29.5701 74.0779 29.6309C73.3359 29.8168 72.7219 30.2887 72.1863 30.9014C71.6492 31.5157 71.2087 32.2497 70.8054 32.9346L70.7791 32.9795L70.739 33.0127C70.4904 33.2196 70.259 33.3995 69.988 33.4854C69.7015 33.5761 69.4098 33.5517 69.0564 33.4482L69.0056 33.4336L68.9636 33.4023C68.5229 33.079 68.3057 32.6556 68.2576 32.1943C68.2108 31.7459 68.3247 31.2788 68.5066 30.8457C68.8699 29.9808 69.543 29.155 70.0271 28.6836C70.7991 27.9321 71.5348 27.4092 72.3435 27.0371C73.1503 26.666 74.0171 26.451 75.0437 26.2988L75.0535 26.2969H75.0623C75.2262 26.2829 75.4872 26.256 75.7419 26.249Z" fill="black" stroke="black" stroke-width="0.6"/>
<path d="M52.1743 63.3337C53.1138 62.8904 54.1775 62.7757 55.1899 63.0076C57.0696 63.4381 58.4656 64.9844 58.688 66.8679C58.9105 68.7511 57.9135 70.5789 56.186 71.4343C53.9027 72.5649 51.1346 71.6386 50.0229 69.3884C48.9132 67.1413 49.8729 64.4197 52.1743 63.3337ZM53.0874 63.906C52.6404 63.8039 52.1739 63.8355 51.7466 63.9949L51.5659 64.071C50.4033 64.6196 49.9072 66.0049 50.4761 67.157C50.7578 67.7272 51.2469 68.127 51.8042 68.3162L52.5005 68.5525L52.4644 67.8181C52.4334 67.1929 52.7789 66.5748 53.395 66.2839C53.6642 66.1568 53.9638 66.1056 54.2603 66.1335L54.9966 66.2029L54.7866 65.4939C54.5538 64.7076 53.9103 64.0943 53.0884 63.906H53.0874Z" fill="black" stroke="black"/>
<path d="M79.1732 62.1666C80.1127 61.7232 81.1764 61.6087 82.1888 61.8405C83.9515 62.2441 85.2898 63.6284 85.6332 65.3522L85.6879 65.7008C85.9105 67.5842 84.9129 69.4127 83.1849 70.2682C80.9018 71.3984 78.1346 70.4723 77.0228 68.2223C75.9128 65.975 76.8719 63.2525 79.1732 62.1666ZM80.0883 62.7399C79.5767 62.6227 79.0392 62.681 78.5648 62.9049C77.4028 63.4537 76.9061 64.8388 77.475 65.9908C77.7569 66.5613 78.2471 66.962 78.8051 67.151L79.5013 67.3873L79.4652 66.652C79.4341 66.0265 79.7796 65.4086 80.3959 65.1178C80.6648 64.991 80.9631 64.9397 81.2592 64.9674L81.9955 65.0367L81.7855 64.3278C81.5528 63.5417 80.9106 62.9283 80.0883 62.7399Z" fill="black" stroke="black"/>
</g>
</g>
<defs>
<clipPath id="clip0_511_4424">
<rect width="133" height="87" fill="white"/>
</clipPath>
</defs>
</svg>
